<svg xmlns="http://www.w3.org/2000/svg" viewBox="0 0 512 512">
  <defs>
    <linearGradient id="warmGradient" x1="0%" y1="0%" x2="100%" y2="100%">
      <stop offset="0%" stop-color="#4F46E5" /> <!-- Indigo 600 (Cooler) -->
      <stop offset="100%" stop-color="#9333EA" /> <!-- Purple 600 (Primary-ish) -->
    </linearGradient>
  </defs>
  <rect width="512" height="512" rx="128" fill="url(#warmGradient)" />
  
  <g transform="translate(256, 256)"> 
    <g transform="translate(-150, -210)"> 
      
      <path fill="white" d="
          M 10,210
          A 140 140 0 1 1 290,210
          
          C 290,260 305,320 320,360
          A 20 20 0 0 1 280,360
          
          C 275,320 270,300 265,280
          C 260,320 260,360 250,380
          A 20 20 0 0 1 210,380
          
          C 205,340 205,320 205,300
          C 200,340 195,380 185,390
          A 15 15 0 0 1 155,370
          
          C 155,340 155,320 150,300 
          
          C 145,320 145,340 145,370
          A 15 15 0 0 1 115,390
          C 105,380 100,340 95,300
          
          C 95,320 95,340 90,380
          A 20 20 0 0 1 50,380
          C 40,360 40,320 35,280
          
          C 30,300 25,320 20,360
          A 20 20 0 0 1 -20,360
          C -5,320 10,260 10,210
          Z
       " transform="translate(0, -20)"/>

      <circle cx="85" cy="180" r="16" fill="#8B5CF6"/>
      <circle cx="215" cy="180" r="16" fill="#8B5CF6"/>
      
      <path d="M 130 190 Q 150 205 170 190" fill="none" stroke="#8B5CF6" stroke-width="6" stroke-linecap="round" opacity="0.5"/>
    </g>
  </g>
</svg>
